<svg xmlns="http://www.w3.org/2000/svg" width="101" height="42" viewBox="0 0 101 42">
    <g fill="none" fill-rule="evenodd">
        <path fill="#08BF91" d="M21.908 11.174S12.63 23.237 9.662 28.77c-2.968 5.534 3.283 12.56 3.283 12.56s9.86-15.052 11.078-16.795c3.463-5.072-2.115-13.362-2.115-13.362M13.046 0S3.768 12.063.8 17.597c-2.968 5.535 3.283 12.56 3.283 12.56s9.86-15.051 11.078-16.795C18.624 8.29 13.046 0 13.046 0"/>
        <path fill="#FFF" d="M35.464 39.218c-.525 0-1.086-.16-1.58-.45a.386.386 0 0 1-.182-.252.368.368 0 0 1 .066-.3.367.367 0 0 1 .304-.154c.074 0 .146.022.21.062.405.258.79.377 1.211.377.745 0 1.01-.407 1.01-.786 0-.517-.596-.745-1.173-.965-.776-.297-1.544-.663-1.544-1.519 0-.898.737-1.503 1.834-1.503.45 0 .886.118 1.298.35a.374.374 0 0 1 .113.547.362.362 0 0 1-.293.145.382.382 0 0 1-.192-.053 1.805 1.805 0 0 0-.907-.261c-.68 0-.922.375-.922.726 0 .478.527.67 1.086.873l.097.037c.718.27 1.535.578 1.535 1.565 0 .948-.774 1.56-1.97 1.56M42.577 39.091a.496.496 0 0 1-.495-.495v-2.673c0-.954-.29-1.36-.97-1.36-.517 0-.864.252-1.36.75l-.02 3.288a.49.49 0 0 1-.98 0V31.95a.49.49 0 0 1 .98 0v1.5l-.046 1.22.117-.11c.427-.41.962-.83 1.69-.83 1.062 0 1.58.673 1.58 2.058v2.81a.495.495 0 0 1-.496.494M45.289 32.732c-.38 0-.646-.246-.646-.597 0-.352.266-.597.646-.597.386 0 .656.245.656.597 0 .346-.276.597-.656.597m0 6.359a.49.49 0 0 1-.49-.49v-4.246a.49.49 0 0 1 .98 0V38.6a.49.49 0 0 1-.49.49M47.624 41.327a.382.382 0 0 1-.35-.478.383.383 0 0 1 .374-.294h.003c.603 0 .999-.353 1.234-1.047l.108-.372-1.836-4.637a.454.454 0 0 1 .047-.431.463.463 0 0 1 .817.103l.868 2.407.199.62c.095.297.19.599.287.888l.015.045h.097l.062-.048.419-1.51.744-2.395a.443.443 0 0 1 .786-.126.434.434 0 0 1 .058.402l-1.733 5.002c-.478 1.314-1.092 1.875-2.051 1.875a2.33 2.33 0 0 1-.148-.004M55.495 36.394c-1.528.187-2.18.564-2.18 1.262 0 .512.328.805.902.805.445 0 .83-.185 1.33-.64l.021-1.436-.073.01zm-1.618 2.823c-.905 0-1.513-.596-1.513-1.483 0-1.107.941-1.68 3.146-1.922l.06-.006-.002-.059c-.012-.819-.379-1.233-1.088-1.233-.38 0-.777.11-1.21.338a.366.366 0 0 1-.525-.433.35.35 0 0 1 .175-.215c.596-.316 1.187-.476 1.755-.476 1.25 0 1.882.742 1.882 2.204v2.731a.428.428 0 0 1-.85.066l-.042-.252h-.079l-.048.016c-.559.481-1.118.724-1.66.724zM62.1 39.091a.496.496 0 0 1-.495-.495v-2.673c0-.954-.29-1.36-.97-1.36-.515 0-.876.263-1.361.75l-.02 3.288a.49.49 0 0 1-.98 0v-4.317a.42.42 0 0 1 .837-.049l.044.37h.084l.048-.018c.464-.446.994-.858 1.728-.858 1.064 0 1.58.673 1.58 2.058v2.81a.495.495 0 0 1-.495.494M65.395 39.218c-.712 0-1.045-.419-1.045-1.319v-5.95a.49.49 0 0 1 .98 0v6.01c0 .153.033.274.1.357a.3.3 0 0 0 .182.111.272.272 0 0 1 .226.224.476.476 0 0 1-.094.404.456.456 0 0 1-.349.163M69.329 34.524c-.868 0-1.428.77-1.428 1.964 0 1.182.56 1.945 1.428 1.945.874 0 1.438-.763 1.438-1.945 0-1.193-.564-1.964-1.438-1.964m0 4.694c-1.22 0-2.457-.938-2.457-2.73 0-1.811 1.237-2.76 2.457-2.76 1.22 0 2.458.949 2.458 2.76 0 1.792-1.237 2.73-2.458 2.73M74.733 39.218c-1.058 0-1.57-.67-1.57-2.049v-2.81a.495.495 0 0 1 .989 0v2.674c0 .947.287 1.352.96 1.352.499 0 .86-.224 1.337-.825l.014-3.2a.496.496 0 0 1 .99 0v4.315a.418.418 0 0 1-.832.044l-.047-.437h-.088l-.05.024c-.552.639-1.06.912-1.704.912M79.805 39.218c-.396 0-.685-.3-.685-.715 0-.417.295-.733.685-.733.39 0 .685.316.685.733 0 .414-.289.715-.685.715M84.159 39.218c-1.493 0-2.497-1.098-2.497-2.73 0-1.895 1.34-2.76 2.584-2.76.419 0 .794.105 1.145.317a.37.37 0 0 1 .172.248.383.383 0 0 1-.071.3c-.094.123-.202.176-.32.176a.383.383 0 0 1-.193-.051 1.305 1.305 0 0 0-.684-.195c-.944 0-1.604.808-1.604 1.964 0 1.163.633 1.945 1.575 1.945.285 0 .572-.083.853-.247a.374.374 0 0 1 .506.128.38.38 0 0 1-.126.521 2.575 2.575 0 0 1-1.34.383M88.9 34.524c-.868 0-1.429.77-1.429 1.964 0 1.182.561 1.945 1.43 1.945.873 0 1.437-.763 1.437-1.945 0-1.193-.564-1.964-1.438-1.964m0 4.694c-1.22 0-2.458-.938-2.458-2.73 0-1.811 1.237-2.76 2.458-2.76s2.458.949 2.458 2.76c0 1.792-1.237 2.73-2.458 2.73M99.728 39.091a.49.49 0 0 1-.49-.49v-2.678c0-.94-.296-1.36-.96-1.36-.385 0-.785.238-1.257.751l-.017 3.287c0 .27-.22.49-.49.49-.28 0-.5-.22-.5-.49v-2.678c0-.94-.295-1.36-.96-1.36-.38 0-.79.245-1.255.751l-.018 3.287a.49.49 0 0 1-.98 0v-4.317a.42.42 0 0 1 .835-.048l.046.38h.085l.05-.022c.555-.59 1.066-.865 1.607-.865.713 0 1.177.307 1.418.941l.038.098.072-.076c.629-.676 1.136-.963 1.695-.963 1.048 0 1.581.692 1.581 2.058v2.814c0 .27-.22.49-.49.49h-.01zM82.162 19.555l-.936 2.264a1.143 1.143 0 0 1-1.496.62 1.148 1.148 0 0 1-.622-1.495l3.009-7.274c.014-.034.029-.066.045-.097v-.104h-1.31a1.147 1.147 0 0 1-1.146-1.146c0-.63.514-1.145 1.146-1.145h1.31V7.867c0-.63.514-1.145 1.145-1.145.632 0 1.146.514 1.146 1.145v3.313h1.08c.63 0 1.144.514 1.144 1.144 0 .633-.514 1.146-1.145 1.146h-.916l2.147 3.053c.176.251.244.555.19.856a1.141 1.141 0 0 1-1.126.95c-.373 0-.724-.183-.938-.488l-.436-.619v10.096c0 .632-.514 1.146-1.146 1.146a1.147 1.147 0 0 1-1.145-1.146v-7.762zm10.575-.598h6.409a1.016 1.016 0 1 1 0 2.03h-.73a7.314 7.314 0 0 1-2.05 3.788l2.695 1.184a1.042 1.042 0 1 1-.84 1.91l-3.834-1.684a8.63 8.63 0 0 1-.773.343c-1.222.472-4.076 1.21-5.667 1.609a1.009 1.009 0 0 1-1.231-.747c-.14-.578.18-1.14.727-1.277.924-.232 2.82-.717 4.205-1.131l-2.846-1.25a1.017 1.017 0 0 1-.463-1.454l.77-1.29h-1.525a1.016 1.016 0 0 1 0-2.03h2.737l.554-.928c.187-.314.53-.509.897-.509a1.04 1.04 0 0 1 1.009.789c.055.218.038.442-.044.647zm-1.198 2.03l-.788 1.32 3.488 1.533a5.353 5.353 0 0 0 2.026-2.853h-4.726zm.945-5.977l-3.766 2.862c-.178.136-.39.207-.613.207-.321 0-.616-.146-.809-.4a1.01 1.01 0 0 1-.198-.752 1.01 1.01 0 0 1 .391-.671l3.838-2.917H87.72c-.56 0-1.016-.456-1.016-1.015 0-.56.456-1.015 1.016-1.015h4.764V8.345a1.017 1.017 0 0 1 2.032 0v2.964h4.766a1.016 1.016 0 1 1 0 2.03h-3.608l3.837 2.917c.217.164.355.403.392.67.036.269-.034.536-.199.753-.192.254-.487.4-.808.4-.224 0-.436-.071-.614-.207l-3.766-2.863v1.307a1.017 1.017 0 0 1-2.032 0V15.01zm-47.676 5.316c.037-.259.056-.523.056-.792v-6.087a1.175 1.175 0 0 1 2.349 0v6.087c0 .267-.014.531-.04.792h4.945c.632 0 1.146.514 1.146 1.145s-.514 1.145-1.146 1.145h-5.534c-.807 1.86-2.351 3.347-4.414 4.144-1.297.502-4.943 1.268-7 1.68a1.17 1.17 0 0 1-1.379-.93c-.123-.63.29-1.245.917-1.37 1.605-.323 5.46-1.122 6.617-1.569 1.078-.417 1.955-1.099 2.566-1.955h-9.12a1.148 1.148 0 0 1-1.146-1.145c0-.631.515-1.145 1.146-1.145h10.037zM42.52 8.99l-.261-.42a1.138 1.138 0 0 1-.159-.862 1.14 1.14 0 0 1 1.119-.906c.391 0 .75.194.963.522l1.037 1.666h6.896a1.15 1.15 0 0 1 1.148 1.146v3.373a1.147 1.147 0 0 1-2.292 0v-2.229H35.918v2.23a1.147 1.147 0 0 1-2.293 0v-3.373a1.15 1.15 0 0 1 1.148-1.147h7.748zm29.193 16.803l2.318-7.869a1.153 1.153 0 0 1 1.423-.775 1.142 1.142 0 0 1 .776 1.423l-2.127 7.22h1.698a1.147 1.147 0 0 1 0 2.291H65.38a1.148 1.148 0 0 1-1.146-1.145c0-.631.515-1.145 1.146-1.145h6.334zm-10.69-8.038v-7.29h-3.535a1.147 1.147 0 0 1-1.145-1.146c0-.63.514-1.145 1.145-1.145h4.68c.632 0 1.147.515 1.147 1.147v8.568c.362.193.61.575.61 1.013v8.413a1.15 1.15 0 0 1-1.149 1.147H59.92a1.147 1.147 0 0 1-1.146-1.146c0-.63.514-1.145 1.146-1.145h1.713v-6.125H58.1a1.147 1.147 0 0 1-1.146-1.146v-5.764a1.147 1.147 0 0 1 2.292 0v4.62h1.779zm6.13-1.977a1.148 1.148 0 0 1-1.146-1.146c0-.63.515-1.145 1.146-1.145h6.873c.631 0 1.146.514 1.146 1.145 0 .632-.515 1.146-1.146 1.146h-6.873zm-9.86 8.476a1.147 1.147 0 0 1-1.146-1.146c0-.63.514-1.145 1.146-1.145h2.915c.631 0 1.146.514 1.146 1.145 0 .632-.515 1.146-1.146 1.146h-2.915zm18.902-9.59c-.306 0-.594-.119-.81-.336l-4.843-4.844-4.747 4.748a1.14 1.14 0 0 1-.81.336 1.147 1.147 0 0 1-.811-1.955l5.556-5.557c.216-.217.505-.336.812-.336.306 0 .594.12.812.336l5.652 5.652a1.143 1.143 0 0 1 0 1.62 1.143 1.143 0 0 1-.81.336zm-8.5 9.9c-.52 0-.976-.353-1.108-.856l-1.138-4.34a1.143 1.143 0 0 1 1.11-1.437c.52 0 .975.351 1.107.855l1.138 4.34a1.147 1.147 0 0 1-1.11 1.437zm3.254-1.237a1.142 1.142 0 0 1-1.127-.948l-.775-4.42a1.138 1.138 0 0 1 .191-.856 1.13 1.13 0 0 1 .94-.488c.556 0 1.03.399 1.126.948l.774 4.42c.053.302-.015.605-.19.856a1.13 1.13 0 0 1-.939.488zM52.274 28.24c-.165 0-.325-.035-.476-.104l-5.282-2.417a1.145 1.145 0 1 1 .953-2.084l5.282 2.417c.278.127.49.355.597.643.107.287.096.598-.031.876a1.152 1.152 0 0 1-1.043.669zM42.847 16.17c-.166 0-.325-.035-.476-.104l-4.135-1.893a1.138 1.138 0 0 1-.597-.642 1.14 1.14 0 0 1 .031-.877 1.15 1.15 0 0 1 1.518-.564l4.136 1.892c.574.264.828.945.565 1.519a1.15 1.15 0 0 1-1.042.669zm-1.604 3.941c-.165 0-.325-.035-.476-.104l-4.58-2.097a1.14 1.14 0 0 1-.565-1.518 1.15 1.15 0 0 1 1.518-.565l4.58 2.096a1.143 1.143 0 0 1 .565 1.52 1.15 1.15 0 0 1-1.042.668zM97.1 11.004c-.21 0-.411-.063-.583-.185a1.003 1.003 0 0 1-.416-.656 1.005 1.005 0 0 1 .169-.758l.94-1.335a1.013 1.013 0 0 1 1.83.409c.047.268-.014.537-.17.758l-.94 1.335c-.188.27-.5.432-.83.432zm-7.2 0c-.33 0-.641-.161-.83-.431l-.94-1.336a1.004 1.004 0 0 1-.17-.758c.047-.267.195-.5.418-.656a1.015 1.015 0 0 1 1.413.246l.939 1.336c.157.222.217.49.17.758a1.003 1.003 0 0 1-.416.656 1.002 1.002 0 0 1-.583.185z"/>
    </g>
</svg>
